<svg width="146" height="151" viewBox="0 0 146 151" xmlns="http://www.w3.org/2000/svg"><title>iconClient-Active-1.svg</title><g fill="none" fill-rule="evenodd"><path d="M39.27 77.422c0-5.323 5.177-9.638 11.565-9.638 6.387 0 11.566 4.315 11.566 9.638" fill="#F7F7F7"/><path d="M39.27 77.422c0-5.323 5.177-9.638 11.565-9.638 6.387 0 11.566 4.315 11.566 9.638" stroke="#545E65" stroke-width="2"/><path d="M46.972 63.285v6.426c0 .71 1.726 1.285 3.856 1.285 2.129 0 3.855-.575 3.855-1.285v-6.426h-7.71z" fill="#F7F7F7"/><path d="M46.972 63.285v6.426c0 .71 1.726 1.285 3.856 1.285 2.129 0 3.855-.575 3.855-1.285v-6.426h-7.71z" stroke="#545E65" stroke-width="2"/><path d="M50.828 48.507a7.71 7.71 0 0 0-7.71 7.71v1.286h.003c.043 5.628 3.475 10.176 7.707 10.176 4.231 0 7.663-4.548 7.706-10.176h.004v-1.286a7.71 7.71 0 0 0-7.71-7.71" fill="#F7F7F7"/><path d="M50.828 48.507a7.71 7.71 0 0 0-7.71 7.71v1.286h.003c.043 5.628 3.475 10.176 7.707 10.176 4.231 0 7.663-4.548 7.706-10.176h.004v-1.286a7.71 7.71 0 0 0-7.71-7.71z" stroke="#545E65" stroke-width="2"/><path d="M93.89 62.642c0-5.323 5.178-9.638 11.566-9.638 6.387 0 11.565 4.315 11.565 9.638" fill="#F7F7F7"/><path d="M93.89 62.642c0-5.323 5.178-9.638 11.566-9.638 6.387 0 11.565 4.315 11.565 9.638" stroke="#545E65" stroke-width="2"/><path d="M101.593 48.505v6.426c0 .71 1.726 1.285 3.855 1.285 2.13 0 3.856-.575 3.856-1.285v-6.426h-7.71z" fill="#F7F7F7"/><path d="M101.593 48.505v6.426c0 .71 1.726 1.285 3.855 1.285 2.13 0 3.856-.575 3.856-1.285v-6.426h-7.71z" stroke="#545E65" stroke-width="2"/><path d="M105.449 33.727a7.71 7.71 0 0 0-7.71 7.71v1.285h.003c.042 5.63 3.475 10.177 7.707 10.177 4.231 0 7.663-4.548 7.706-10.177h.004v-1.285a7.71 7.71 0 0 0-7.71-7.71" fill="#F7F7F7"/><path d="M105.449 33.727a7.71 7.71 0 0 0-7.71 7.71v1.285h.003c.042 5.63 3.475 10.177 7.707 10.177 4.231 0 7.663-4.548 7.706-10.177h.004v-1.285a7.71 7.71 0 0 0-7.71-7.71z" stroke="#545E65" stroke-width="2"/><path d="M53.403 98.952c0 15.969-11.507 28.914-25.702 28.914C13.507 127.866 2 114.921 2 98.952c0-15.97 11.507-28.915 25.701-28.915 14.195 0 25.702 12.945 25.702 28.915" fill="#F7F7F7"/><path d="M28.986 127.224c-13.109 0-23.773-12.107-23.773-26.988 0-14.88 10.664-26.987 23.773-26.987 13.11 0 23.774 12.107 23.774 26.987 0 14.881-10.665 26.988-23.774 26.988" fill="#FCF9DE"/><path d="M53.403 98.952c0 15.969-11.507 28.914-25.702 28.914C13.507 127.866 2 114.921 2 98.952c0-15.97 11.507-28.915 25.701-28.915 14.195 0 25.702 12.945 25.702 28.915z" stroke="#545E65" stroke-width="4"/><path d="M21.116 111.395l6.575 5.753 6.576-5.753H21.116z" fill="#545E65"/><path d="M21.116 111.395l6.575 5.753 6.576-5.753H21.116z" stroke="#545E65" stroke-width="2" stroke-linecap="round" stroke-linejoin="round"/><path d="M27.691 114.682c-5.07 0-8.219-1.89-8.219-4.931 0-3.043 3.149-4.932 8.22-4.932 5.07 0 8.219 1.89 8.219 4.932 0 3.042-3.15 4.931-8.22 4.931" fill="#FCF9DE"/><path d="M27.691 114.682c-5.07 0-8.219-1.89-8.219-4.931 0-3.043 3.149-4.932 8.22-4.932 5.07 0 8.219 1.89 8.219 4.932 0 3.042-3.15 4.931-8.22 4.931z" stroke="#545E65" stroke-width="2"/><path d="M22.76 101.53v8.22c0 .909 2.207 1.644 4.931 1.644s4.932-.735 4.932-1.643v-8.22H22.76z" fill="#FCF9DE"/><path d="M22.76 101.53v8.22c0 .909 2.207 1.644 4.931 1.644s4.932-.735 4.932-1.643v-8.22H22.76z" stroke="#545E65" stroke-width="2"/><path d="M21.97 94.535a2.761 2.761 0 0 1-2.761 2.761c-1.526 0-2.762-1.828-2.762-3.353 0-1.526 1.236-2.17 2.762-2.17a2.761 2.761 0 0 1 2.761 2.762" fill="#FCF9DE"/><path d="M21.97 94.535a2.761 2.761 0 0 1-2.761 2.761c-1.526 0-2.762-1.828-2.762-3.353 0-1.526 1.236-2.17 2.762-2.17a2.761 2.761 0 0 1 2.761 2.762z" stroke="#545E65" stroke-width="2"/><path d="M33.412 94.239A2.761 2.761 0 0 0 36.174 97c1.525 0 2.761-1.828 2.761-3.353 0-1.526-1.236-2.17-2.761-2.17a2.761 2.761 0 0 0-2.762 2.762" fill="#FCF9DE"/><path d="M33.412 94.239A2.761 2.761 0 0 0 36.174 97c1.525 0 2.761-1.828 2.761-3.353 0-1.526-1.236-2.17-2.761-2.17a2.761 2.761 0 0 0-2.762 2.762z" stroke="#545E65" stroke-width="2"/><path d="M27.691 81.163c-4.902 0-8.877 4.24-8.877 9.469 0 5.229 3.975 9.469 8.877 9.469 4.903 0 8.877-4.24 8.877-9.47 0-5.229-3.974-9.468-8.877-9.468" fill="#545E65"/><path d="M27.691 81.163c-4.902 0-8.877 4.24-8.877 9.469 0 5.229 3.975 9.469 8.877 9.469 4.903 0 8.877-4.24 8.877-9.47 0-5.229-3.974-9.468-8.877-9.468z" stroke="#545E65" stroke-width="2"/><path d="M33.737 86.307c-1.586-.986-3.707-1.594-6.046-1.594-2.338 0-4.46.608-6.045 1.594-.549 1.94-1.14 3.618-2.832 4.9v1.792c0 7.052 4.032 11.836 8.877 11.836 4.846 0 8.877-4.784 8.877-11.836v-1.792c-1.691-1.282-2.283-2.96-2.831-4.9" fill="#FCF9DE"/><path d="M33.737 86.307c-1.586-.986-3.707-1.594-6.046-1.594-2.338 0-4.46.608-6.045 1.594-.549 1.94-1.14 3.618-2.832 4.9v1.792c0 7.052 4.032 11.836 8.877 11.836 4.846 0 8.877-4.784 8.877-11.836v-1.792c-1.691-1.282-2.283-2.96-2.831-4.9z" stroke="#545E65" stroke-width="2"/><path d="M24.155 94.067c0 .818-.53 1.48-1.184 1.48-.653 0-1.183-.662-1.183-1.48 0-.817.53-1.48 1.183-1.48.654 0 1.184.663 1.184 1.48m9.469 0c0 .818-.53 1.48-1.184 1.48-.653 0-1.183-.662-1.183-1.48 0-.817.53-1.48 1.183-1.48.654 0 1.184.663 1.184 1.48m.887 7.281c0 3.333-3.053 6.035-6.82 6.035-3.767 0-6.82-2.702-6.82-6.035s2.915-3.73 6.681-3.73c3.767 0 6.96.397 6.96 3.73" fill="#545E65"/><path d="M25.57 100.174c1.173 1.26 3.07 1.26 4.242 0h-4.241z" fill="#FCF9DE"/><path d="M25.57 100.174c1.173 1.26 3.07 1.26 4.242 0h-4.241z" stroke="#FCF9DE" stroke-width="2" stroke-linecap="round" stroke-linejoin="round"/><path d="M143.366 98.952c0 15.969-11.507 28.914-25.7 28.914-14.195 0-25.702-12.945-25.702-28.914 0-15.97 11.507-28.915 25.701-28.915s25.701 12.945 25.701 28.915" fill="#F7F7F7"/><path d="M118.95 127.224c-13.109 0-23.774-12.107-23.774-26.988 0-14.88 10.665-26.987 23.774-26.987 13.11 0 23.774 12.107 23.774 26.987 0 14.881-10.665 26.988-23.774 26.988" fill="#D8F0C8"/><path d="M143.366 98.952c0 15.969-11.507 28.914-25.7 28.914-14.195 0-25.702-12.945-25.702-28.914 0-15.97 11.507-28.915 25.701-28.915s25.701 12.945 25.701 28.915z" stroke="#545E65" stroke-width="4"/><path d="M72.683 151c-16.297 0-29.556-14.701-29.556-32.77 0-18.07 13.259-32.77 29.556-32.77s29.557 14.7 29.557 32.77c0 18.069-13.26 32.77-29.557 32.77" fill="#F7F7F7"/><path d="M73.968 146.502c-13.109 0-23.773-12.106-23.773-26.987 0-14.88 10.664-26.987 23.773-26.987 13.11 0 23.774 12.106 23.774 26.987 0 14.88-10.665 26.987-23.774 26.987" fill="#C2E9F9"/><path d="M98.385 118.23c0 15.97-11.508 28.915-25.702 28.915-14.194 0-25.701-12.946-25.701-28.915 0-15.97 11.507-28.915 25.701-28.915s25.702 12.946 25.702 28.915z" stroke="#545E65" stroke-width="4"/><path d="M73.97 68.426c0-5.323 5.178-9.639 11.565-9.639 6.388 0 11.566 4.316 11.566 9.639" fill="#F7F7F7"/><path d="M73.97 68.426c0-5.323 5.178-9.639 11.565-9.639 6.388 0 11.566 4.316 11.566 9.639" stroke="#545E65" stroke-width="2"/><path d="M81.673 54.289v6.425c0 .71 1.726 1.285 3.855 1.285 2.13 0 3.855-.575 3.855-1.285V54.29h-7.71z" fill="#F7F7F7"/><path d="M81.673 54.289v6.425c0 .71 1.726 1.285 3.855 1.285 2.13 0 3.855-.575 3.855-1.285V54.29h-7.71z" stroke="#545E65" stroke-width="2"/><path d="M77.175 44.009a8.353 8.353 0 1 1 16.706 0" fill="#545E65"/><path d="M77.175 44.009a8.353 8.353 0 1 1 16.706 0" stroke="#545E65" stroke-width="2"/><path d="M92.596 47.864H78.46c-.71 0-1.285-.575-1.285-1.285v-2.57h16.706v2.57c0 .71-.575 1.285-1.285 1.285" fill="#545E65"/><path d="M92.596 47.864H78.46c-.71 0-1.285-.575-1.285-1.285v-2.57h16.706v2.57c0 .71-.575 1.285-1.285 1.285z" stroke="#545E65" stroke-width="2"/><path d="M77.818 45.936v4.498a7.71 7.71 0 0 0 15.42 0v-4.498c0-.71-.575-1.285-1.285-1.285h-12.85c-.71 0-1.285.575-1.285 1.285" fill="#F7F7F7"/><path d="M77.818 45.936v4.498a7.71 7.71 0 0 0 15.42 0v-4.498c0-.71-.575-1.285-1.285-1.285h-12.85c-.71 0-1.285.575-1.285 1.285z" stroke="#545E65" stroke-width="2"/><path d="M28.326 36.3v1.339a3.213 3.213 0 0 0 6.425 0v-1.34a3.213 3.213 0 0 0-6.425 0" fill="#C2E9F9"/><path d="M60.452 26.5v.804a1.928 1.928 0 1 0 3.855 0V26.5a1.928 1.928 0 1 0-3.855 0" fill="#FF5C47"/><path d="M51.457 2.245v.803a1.928 1.928 0 0 0 3.855 0v-.803a1.928 1.928 0 1 0-3.855 0M88.908 123.41a3.785 3.785 0 0 1-3.785-3.785c0-.456.085-.89.232-1.295a5.571 5.571 0 0 0-1.28-.154 5.556 5.556 0 1 0 5.556 5.556c0-.132-.01-.26-.02-.39a3.79 3.79 0 0 1-.703.068" fill="#545E65"/><path d="M88.908 123.41a3.785 3.785 0 0 1-3.785-3.785c0-.456.085-.89.232-1.295a5.571 5.571 0 0 0-1.28-.154 5.556 5.556 0 1 0 5.556 5.556c0-.132-.01-.26-.02-.39a3.79 3.79 0 0 1-.703.068z" stroke="#545E65" stroke-width="2"/><path d="M72.882 115.8a7.73 7.73 0 1 1-15.46 0 7.73 7.73 0 1 1 15.46 0" fill="#545E65"/><path d="M72.882 115.8a7.73 7.73 0 1 1-15.46 0 7.73 7.73 0 1 1 15.46 0z" stroke="#545E65" stroke-width="2"/><path d="M64.668 117.733c0-5.803 4.705-10.509 10.509-10.509 5.803 0 10.508 4.706 10.508 10.51 0 5.803-4.705 10.508-10.508 10.508-5.804 0-10.509-4.705-10.509-10.509" fill="#545E65"/><path d="M64.668 117.733c0-5.803 4.705-10.509 10.509-10.509 5.803 0 10.508 4.706 10.508 10.51 0 5.803-4.705 10.508-10.508 10.508-5.804 0-10.509-4.705-10.509-10.509z" stroke="#545E65" stroke-width="2"/><path d="M74.331 122.524a7.972 7.972 0 1 0-15.944 0 7.972 7.972 0 0 0 15.944 0" fill="#545E65"/><path d="M74.331 122.524a7.972 7.972 0 1 0-15.944 0 7.972 7.972 0 0 0 15.944 0z" stroke="#545E65" stroke-width="2"/><path d="M83.752 123.393a7.489 7.489 0 1 0-14.977 0 7.489 7.489 0 0 0 14.977 0" fill="#545E65"/><path d="M83.752 123.393a7.489 7.489 0 1 0-14.977 0 7.489 7.489 0 0 0 14.977 0z" stroke="#545E65" stroke-width="2"/><path d="M59.78 111.165c0-5.763 4.672-10.436 10.436-10.436 5.763 0 10.436 4.673 10.436 10.436" fill="#545E65"/><path d="M59.78 111.165c0-5.763 4.672-10.436 10.436-10.436 5.763 0 10.436 4.673 10.436 10.436" stroke="#545E65" stroke-width="2"/><path d="M66.157 121.875v9.857c0 .96 1.817 1.739 4.058 1.739 2.242 0 4.059-.779 4.059-1.74v-9.856h-8.117z" fill="#C2E9F9"/><path d="M66.157 121.875v9.857c0 .96 1.817 1.739 4.058 1.739 2.242 0 4.059-.779 4.059-1.74v-9.856h-8.117z" stroke="#545E65" stroke-width="2"/><path d="M61.519 113.371v1.484c0 6.786 3.95 12.528 8.697 12.528 4.746 0 8.696-5.742 8.696-12.528v-1.484" fill="#C2E9F9"/><path d="M61.519 113.371v1.484c0 6.786 3.95 12.528 8.697 12.528 4.746 0 8.696-5.742 8.696-12.528v-1.484" stroke="#545E65" stroke-width="2"/><path d="M61.519 113.371c0-2.134 3.894-3.865 8.697-3.865 4.803 0 8.696 1.73 8.696 3.865" fill="#C2E9F9"/><path d="M61.519 113.371c0-2.134 3.894-3.865 8.697-3.865 4.803 0 8.696 1.73 8.696 3.865" stroke="#545E65" stroke-width="2"/><path d="M66.35 117.188c0 .667-.432 1.208-.966 1.208-.533 0-.966-.54-.966-1.208 0-.667.433-1.208.966-1.208.534 0 .967.541.967 1.208m9.662 0c0 .667-.433 1.208-.966 1.208-.534 0-.967-.54-.967-1.208 0-.667.433-1.208.967-1.208.533 0 .966.541.966 1.208m-8.696 5.072c1.602 2.578 4.195 2.578 5.797 0h-5.797zm.483 0c1.335-.644 3.496-.644 4.831 0H67.8zm4.297-21.086a7.93 7.93 0 0 1-11.214 11.214" fill="#545E65"/><path d="M72.097 101.174a7.93 7.93 0 0 1-11.214 11.214" stroke="#545E65" stroke-width="2"/><path d="M75.46 105.732a5.15 5.15 0 1 0 7.283 7.283" fill="#545E65"/><path d="M75.46 105.732a5.15 5.15 0 1 0 7.283 7.283" stroke="#545E65" stroke-width="2"/><path d="M107.377 89.879c0-5.679 4.602-10.281 10.28-10.281 5.678 0 10.28 4.602 10.28 10.28" fill="#545E65"/><path d="M107.377 89.879c0-5.679 4.602-10.281 10.28-10.281 5.678 0 10.28 4.602 10.28 10.28" stroke="#545E65" stroke-width="2"/><path d="M126.01 109.44h-16.706a1.928 1.928 0 0 1-1.927-1.927V89.879h20.56v17.634a1.928 1.928 0 0 1-1.927 1.928" fill="#545E65"/><path d="M126.01 109.44h-16.706a1.928 1.928 0 0 1-1.927-1.927V89.879h20.56v17.634a1.928 1.928 0 0 1-1.927 1.928z" stroke="#545E65" stroke-width="2"/><path d="M117.657 110.71a2.857 2.857 0 1 1-5.713 0 2.857 2.857 0 0 1 5.713 0" fill="#545E65"/><path d="M123.37 110.71a2.857 2.857 0 1 1-5.714 0 2.857 2.857 0 0 1 5.714 0" fill="#545E65"/><path d="M113.659 100.429v9.71c0 .946 1.79 1.713 3.998 1.713s3.998-.767 3.998-1.713v-9.71h-7.996z" fill="#D8F0C8"/><path d="M113.659 100.429v9.71c0 .946 1.79 1.713 3.998 1.713s3.998-.767 3.998-1.713v-9.71h-7.996z" stroke="#545E65" stroke-width="2"/><path d="M109.09 90.148v3.426c0 6.807 3.891 12.566 8.567 12.566s8.568-5.759 8.568-12.566v-3.426H109.09z" fill="#D8F0C8"/><path d="M109.09 90.148v3.426c0 6.807 3.891 12.566 8.567 12.566s8.568-5.759 8.568-12.566v-3.426H109.09z" stroke="#545E65" stroke-width="2"/><path d="M126.224 90.148c0 .946-3.836 1.713-8.566 1.713-4.732 0-8.568-.767-8.568-1.713 0-.947 3.836-1.714 8.568-1.714 4.73 0 8.566.767 8.566 1.714" fill="#545E65"/><path d="M126.224 90.148c0 .946-3.836 1.713-8.566 1.713-4.732 0-8.568-.767-8.568-1.713 0-.947 3.836-1.714 8.568-1.714 4.73 0 8.566.767 8.566 1.714z" stroke="#545E65" stroke-width="2"/><path d="M114.23 95.574c0 .788-.51 1.428-1.142 1.428-.63 0-1.142-.64-1.142-1.428 0-.788.511-1.428 1.142-1.428.631 0 1.143.64 1.143 1.428m9.139 0c0 .788-.512 1.428-1.143 1.428-.63 0-1.142-.64-1.142-1.428 0-.788.511-1.428 1.142-1.428.631 0 1.143.64 1.143 1.428m-5.713 4.536c-.959-.526-2.083-.232-2.855.89 1.578 3.045 4.133 3.045 5.71 0-.772-1.122-1.895-1.416-2.855-.89" fill="#545E65"/></g></svg>